<?xml version="1.0" standalone="no"?>
<!DOCTYPE svg PUBLIC "-//W3C//DTD SVG 20010904//EN"
 "http://www.w3.org/TR/2001/REC-SVG-20010904/DTD/svg10.dtd">
<svg version="1.0" xmlns="http://www.w3.org/2000/svg"
 width="512.000000pt" height="512.000000pt" viewBox="0 0 512.000000 512.000000"
 preserveAspectRatio="xMidYMid meet">
<metadata>
Created by potrace 1.14, written by Peter Selinger 2001-2017
</metadata>
<g transform="translate(0.000000,512.000000) scale(0.100000,-0.100000)"
fill="#000000" stroke="none">
<path d="M2200 4950 c-9 -5 -157 -221 -330 -479 l-313 -471 -75 0 c-106 0
-148 -15 -207 -75 -71 -70 -91 -146 -63 -237 14 -48 76 -121 118 -138 l30 -12
0 -442 c0 -418 5 -514 31 -614 7 -23 10 -45 7 -47 -3 -3 -94 -32 -204 -66
-109 -33 -202 -63 -205 -67 -4 -4 -192 -229 -418 -500 -303 -365 -411 -501
-411 -519 0 -28 637 -1075 672 -1105 19 -17 116 -18 1728 -18 1612 0 1709 1
1728 18 35 30 672 1077 672 1105 0 18 -108 154 -411 519 -226 271 -414 497
-418 501 -5 4 -97 35 -206 68 -109 32 -200 61 -203 64 -3 2 0 24 7 47 26 100
31 196 31 614 l0 442 30 12 c42 17 104 90 118 138 28 91 8 167 -63 237 -59 60
-101 75 -207 75 l-75 0 -137 206 c-76 113 -135 208 -132 211 2 3 137 38 298
78 313 79 328 85 328 145 0 62 1 62 -530 195 l-495 124 -340 0 c-187 0 -347
-4 -355 -9z m-520 -1830 l0 -400 101 0 c92 0 101 -2 94 -17 -26 -62 -35 -117
-35 -205 l0 -99 283 3 c275 3 283 4 327 27 25 13 60 35 78 49 l32 24 33 -24
c17 -14 52 -36 77 -49 44 -23 52 -24 328 -27 l282 -3 0 99 c0 88 -9 143 -35
205 -7 15 2 17 94 17 l101 0 0 400 0 400 81 0 80 0 -3 -467 c-4 -447 -5 -471
-26 -538 -52 -167 -131 -294 -252 -408 -94 -89 -204 -149 -315 -172 -101 -21
-789 -21 -889 0 -216 46 -405 210 -517 449 -73 158 -72 148 -76 669 l-4 467
80 0 81 0 0 -400z m1600 80 l0 -320 -320 0 -320 0 0 120 0 120 -80 0 -80 0 0
-120 0 -120 -320 0 -320 0 0 320 0 320 720 0 720 0 0 -320z m-804 -512 c-7
-39 -31 -74 -70 -102 -25 -19 -44 -21 -217 -24 -162 -3 -189 -1 -189 12 0 25
20 70 43 95 41 45 70 50 261 51 l179 0 -7 -32z m570 6 c39 -28 63 -63 70 -102
l7 -33 -191 3 c-174 3 -193 5 -218 24 -39 28 -63 63 -70 102 l-7 33 191 -3
c174 -3 193 -5 218 -24z m-1071 -1199 c30 -29 32 -64 5 -97 -17 -22 -31 -27
-95 -33 -46 -4 -83 -13 -95 -23 -16 -13 -33 -66 -69 -207 -53 -213 -65 -240
-118 -284 -51 -42 -88 -51 -215 -51 l-108 0 0 80 0 80 94 0 c139 0 132 -10
178 260 20 122 40 225 43 228 7 8 301 70 333 71 13 1 34 -10 47 -24z m1376 -6
c86 -17 162 -35 168 -38 6 -4 29 -108 49 -231 46 -271 39 -260 178 -260 l94 0
0 -80 0 -80 -107 0 c-128 0 -171 10 -219 52 -51 45 -62 73 -115 283 -36 143
-53 194 -69 207 -13 10 -49 20 -92 24 -81 8 -118 33 -118 79 0 27 40 75 62 75
7 0 83 -14 169 -31z m-698 -224 c162 -42 268 -157 299 -325 30 -159 -63 -340
-213 -413 -246 -121 -521 20 -571 293 -22 115 23 252 110 339 102 102 240 141
375 106z"/>
<path d="M2080 3280 l0 -80 80 0 80 0 0 80 0 80 -80 0 -80 0 0 -80z"/>
<path d="M2880 3280 l0 -80 80 0 80 0 0 80 0 80 -80 0 -80 0 0 -80z"/>
<path d="M2320 960 l0 -80 80 0 80 0 0 80 0 80 -80 0 -80 0 0 -80z"/>
<path d="M2560 720 l0 -80 80 0 80 0 0 80 0 80 -80 0 -80 0 0 -80z"/>
</g>
</svg>
